<svg width="165" height="345" viewBox="0 0 165 345" fill="none" xmlns="http://www.w3.org/2000/svg">
<path fill-rule="evenodd" clip-rule="evenodd" d="M-34.5 119.95C-68.065 119.95 -95.2748 143.478 -95.2748 172.5C-95.2748 201.522 -68.065 225.05 -34.5 225.05C-0.934998 225.05 26.2748 201.522 26.2748 172.5C26.2748 143.478 -0.934998 119.95 -34.5 119.95ZM-92.6325 172.5C-92.6325 144.739 -66.6057 122.235 -34.5 122.235C-2.39432 122.235 23.6324 144.739 23.6324 172.5C23.6324 200.261 -2.39432 222.765 -34.5 222.765C-66.6057 222.765 -92.6325 200.261 -92.6325 172.5Z" fill="#00AEEF"/>
<path fill-rule="evenodd" clip-rule="evenodd" d="M-34.5 111.382C-73.5376 111.382 -105.184 138.746 -105.184 172.5C-105.184 206.254 -73.5376 233.618 -34.5 233.618C4.53758 233.618 36.1838 206.254 36.1838 172.5C36.1838 138.746 4.53758 111.382 -34.5 111.382ZM-102.541 172.5C-102.541 140.008 -72.0782 113.667 -34.5 113.667C3.07822 113.667 33.5414 140.008 33.5414 172.5C33.5414 204.992 3.07822 231.333 -34.5 231.333C-72.0782 231.333 -102.541 204.992 -102.541 172.5Z" fill="#00AEEF"/>
<path fill-rule="evenodd" clip-rule="evenodd" d="M-115.093 172.5C-115.093 134.014 -79.0101 102.815 -34.5 102.815C10.0101 102.815 46.0927 134.014 46.0927 172.5C46.0927 210.986 10.0101 242.185 -34.5 242.185C-79.0101 242.185 -115.093 210.986 -115.093 172.5ZM-34.5 105.099C-77.5508 105.099 -112.45 135.276 -112.45 172.5C-112.45 209.724 -77.5508 239.901 -34.5 239.901C8.55078 239.901 43.4503 209.724 43.4503 172.5C43.4503 135.276 8.55078 105.099 -34.5 105.099Z" fill="#00AEEF"/>
<path fill-rule="evenodd" clip-rule="evenodd" d="M-125.002 172.5C-125.002 129.282 -84.4827 94.2467 -34.5 94.2467C15.4827 94.2467 56.0016 129.282 56.0016 172.5C56.0016 215.718 15.4827 250.753 -34.5 250.753C-84.4827 250.753 -125.002 215.718 -125.002 172.5ZM-34.5 96.5314C-83.0233 96.5314 -122.359 130.544 -122.359 172.5C-122.359 214.456 -83.0233 248.469 -34.5 248.469C14.0233 248.469 53.3593 214.456 53.3593 172.5C53.3593 130.544 14.0233 96.5314 -34.5 96.5314Z" fill="#00AEEF"/>
<path fill-rule="evenodd" clip-rule="evenodd" d="M-134.911 172.5C-134.911 124.55 -89.9552 85.6788 -34.5 85.6788C20.9552 85.6788 65.9106 124.55 65.9106 172.5C65.9106 220.45 20.9552 259.321 -34.5 259.321C-89.9552 259.321 -134.911 220.45 -134.911 172.5ZM-34.5 87.9636C-88.4959 87.9636 -132.268 125.812 -132.268 172.5C-132.268 219.188 -88.4959 257.036 -34.5 257.036C19.4959 257.036 63.2682 219.188 63.2682 172.5C63.2682 125.812 19.4959 87.9636 -34.5 87.9636Z" fill="#00AEEF"/>
<path fill-rule="evenodd" clip-rule="evenodd" d="M-34.5 77.1109C-95.4278 77.1109 -144.82 119.818 -144.82 172.5C-144.82 225.182 -95.4278 267.889 -34.5 267.889C26.4278 267.889 75.8195 225.182 75.8195 172.5C75.8195 119.818 26.4278 77.1109 -34.5 77.1109ZM-142.177 172.5C-142.177 121.08 -93.9684 79.3957 -34.5 79.3957C24.9684 79.3957 73.1772 121.08 73.1772 172.5C73.1772 223.92 24.9684 265.604 -34.5 265.604C-93.9684 265.604 -142.177 223.92 -142.177 172.5Z" fill="#00AEEF"/>
<path fill-rule="evenodd" clip-rule="evenodd" d="M-154.728 172.5C-154.728 115.086 -100.9 68.543 -34.5 68.543C31.9004 68.543 85.7285 115.086 85.7285 172.5C85.7285 229.914 31.9004 276.457 -34.5 276.457C-100.9 276.457 -154.728 229.914 -154.728 172.5ZM-34.5 70.8278C-99.441 70.8278 -152.086 116.348 -152.086 172.5C-152.086 228.652 -99.441 274.172 -34.5 274.172C30.441 274.172 83.0861 228.652 83.0861 172.5C83.0861 116.348 30.441 70.8278 -34.5 70.8278Z" fill="#00AEEF"/>
<path fill-rule="evenodd" clip-rule="evenodd" d="M-34.5 59.9752C-106.373 59.9752 -164.637 110.354 -164.637 172.5C-164.637 234.646 -106.373 285.025 -34.5 285.025C37.3729 285.025 95.6374 234.646 95.6374 172.5C95.6374 110.354 37.3729 59.9752 -34.5 59.9752ZM-161.995 172.5C-161.995 111.616 -104.914 62.2599 -34.5 62.2599C35.9135 62.2599 92.995 111.616 92.995 172.5C92.995 233.384 35.9135 282.74 -34.5 282.74C-104.914 282.74 -161.995 233.384 -161.995 172.5Z" fill="#00AEEF"/>
<path fill-rule="evenodd" clip-rule="evenodd" d="M-174.546 172.5C-174.546 105.622 -111.845 51.4073 -34.5 51.4073C42.8455 51.4073 105.546 105.622 105.546 172.5C105.546 239.378 42.8455 293.593 -34.5 293.593C-111.845 293.593 -174.546 239.378 -174.546 172.5ZM-34.5 53.6921C-110.386 53.6921 -171.904 106.884 -171.904 172.5C-171.904 238.116 -110.386 291.308 -34.5 291.308C41.3861 291.308 102.904 238.116 102.904 172.5C102.904 106.884 41.3861 53.6921 -34.5 53.6921Z" fill="#00AEEF"/>
<path fill-rule="evenodd" clip-rule="evenodd" d="M-34.5 42.8394C-117.318 42.8394 -184.455 100.89 -184.455 172.5C-184.455 244.11 -117.318 302.161 -34.5 302.161C48.318 302.161 115.455 244.11 115.455 172.5C115.455 100.89 48.318 42.8394 -34.5 42.8394ZM-181.813 172.5C-181.813 102.152 -115.859 45.1242 -34.5 45.1242C46.8586 45.1242 112.813 102.152 112.813 172.5C112.813 242.848 46.8586 299.876 -34.5 299.876C-115.859 299.876 -181.813 242.848 -181.813 172.5Z" fill="#00AEEF"/>
<path fill-rule="evenodd" clip-rule="evenodd" d="M-194.364 172.5C-194.364 96.1585 -122.791 34.2715 -34.5 34.2715C53.7906 34.2715 125.364 96.1585 125.364 172.5C125.364 248.841 53.7906 310.728 -34.5 310.728C-122.791 310.728 -194.364 248.841 -194.364 172.5ZM-34.5 36.5563C-121.331 36.5563 -191.722 97.4204 -191.722 172.5C-191.722 247.58 -121.331 308.444 -34.5 308.444C52.3312 308.444 122.722 247.58 122.722 172.5C122.722 97.4204 52.3312 36.5563 -34.5 36.5563Z" fill="#00AEEF"/>
<path fill-rule="evenodd" clip-rule="evenodd" d="M-34.5 25.7036C-128.263 25.7036 -204.273 91.4266 -204.273 172.5C-204.273 253.573 -128.263 319.296 -34.5 319.296C59.2632 319.296 135.273 253.573 135.273 172.5C135.273 91.4266 59.2632 25.7036 -34.5 25.7036ZM-201.631 172.5C-201.631 92.6885 -126.804 27.9884 -34.5 27.9884C57.8038 27.9884 132.631 92.6885 132.631 172.5C132.631 252.312 57.8038 317.012 -34.5 317.012C-126.804 317.012 -201.631 252.312 -201.631 172.5Z" fill="#00AEEF"/>
<path fill-rule="evenodd" clip-rule="evenodd" d="M-214.182 172.5C-214.182 86.6947 -133.736 17.1358 -34.5 17.1358C64.7357 17.1358 145.182 86.6947 145.182 172.5C145.182 258.305 64.7357 327.864 -34.5 327.864C-133.736 327.864 -214.182 258.305 -214.182 172.5ZM-34.5 19.4205C-132.276 19.4205 -211.54 87.9565 -211.54 172.5C-211.54 257.043 -132.276 325.579 -34.5 325.579C63.2763 325.579 142.54 257.043 142.54 172.5C142.54 87.9565 63.2763 19.4205 -34.5 19.4205Z" fill="#00AEEF"/>
<path fill-rule="evenodd" clip-rule="evenodd" d="M-34.5 8.56788C-139.208 8.56788 -224.091 81.9628 -224.091 172.5C-224.091 263.037 -139.208 336.432 -34.5 336.432C70.2083 336.432 155.091 263.037 155.091 172.5C155.091 81.9628 70.2083 8.56788 -34.5 8.56788ZM-221.449 172.5C-221.449 83.2246 -137.749 10.8526 -34.5 10.8526C68.7489 10.8526 152.449 83.2246 152.449 172.5C152.449 261.775 68.7489 334.147 -34.5 334.147C-137.749 334.147 -221.449 261.775 -221.449 172.5Z" fill="#00AEEF"/>
<path fill-rule="evenodd" clip-rule="evenodd" d="M-234 172.5C-234 77.2309 -144.681 0 -34.5 0C75.6808 0 165 77.2309 165 172.5C165 267.769 75.6808 345 -34.5 345C-144.681 345 -234 267.769 -234 172.5ZM-34.5 2.28477C-143.221 2.28477 -231.358 78.4927 -231.358 172.5C-231.358 266.507 -143.221 342.715 -34.5 342.715C74.2214 342.715 162.358 266.507 162.358 172.5C162.358 78.4927 74.2214 2.28477 -34.5 2.28477Z" fill="#00AEEF"/>
</svg>
