<svg width="352" height="419" viewBox="0 0 352 419" fill="none" xmlns="http://www.w3.org/2000/svg">
<path d="M379.86 328.306C378.652 330.085 377.414 331.846 376.149 333.588C376.434 331.386 377.759 329.372 379.86 328.306Z" fill="#00AEEF"/>
<path d="M406.434 273.199C405.11 277.441 403.652 281.638 402.062 285.785C399.603 285.651 397.282 284.2 396.136 281.802C394.472 278.321 395.916 274.163 399.362 272.516C401.734 271.382 404.437 271.734 406.434 273.199Z" fill="#00AEEF"/>
<path d="M415.794 219.455C415.703 221.619 415.578 223.779 415.42 225.934C414.443 223.764 414.656 221.35 415.794 219.455Z" fill="#00AEEF"/>
<path d="M325.159 37.1279C326.936 38.3586 328.695 39.618 330.437 40.9057C328.247 40.6012 326.235 39.2514 325.159 37.1279Z" fill="#00AEEF"/>
<path d="M270.192 9.94046C274.417 11.3071 278.6 12.8082 282.732 14.4413C282.619 16.9156 281.195 19.2401 278.823 20.3743C275.377 22.0216 271.235 20.5348 269.57 17.0535C268.424 14.6563 268.752 11.9385 270.192 9.94046Z" fill="#00AEEF"/>
<path d="M216.717 0.0897746C218.868 0.199077 221.015 0.341974 223.158 0.518195C221.009 1.48406 218.609 1.25063 216.717 0.0897746Z" fill="#00AEEF"/>
<path d="M199.426 418.072C197.275 417.963 195.128 417.82 192.984 417.644C195.134 416.678 197.533 416.911 199.426 418.072Z" fill="#00AEEF"/>
<path d="M145.95 408.222C147.391 406.224 147.718 403.506 146.572 401.109C144.908 397.627 140.766 396.14 137.32 397.788C134.947 398.922 133.524 401.246 133.41 403.721C137.543 405.354 141.725 406.855 145.95 408.222Z" fill="#00AEEF"/>
<path d="M90.9836 381.034C89.9075 378.911 87.8957 377.561 85.7057 377.256C87.4472 378.544 89.2067 379.803 90.9836 381.034Z" fill="#00AEEF"/>
<path d="M0.348663 198.707C1.48695 196.812 1.6997 194.399 0.722818 192.228C0.56487 194.383 0.440063 196.544 0.348663 198.707Z" fill="#00AEEF"/>
<path d="M9.70854 144.963C11.7054 146.428 14.4083 146.78 16.781 145.646C20.2267 143.999 21.6709 139.841 20.0066 136.36C18.8606 133.963 16.5397 132.511 14.0802 132.377C12.4907 136.524 11.0326 140.721 9.70854 144.963Z" fill="#00AEEF"/>
<path d="M36.2823 89.856C38.3835 88.7899 39.7087 86.7758 39.9937 84.574C38.7281 86.3165 37.4909 88.0774 36.2823 89.856Z" fill="#00AEEF"/>
<path d="M352.419 78.121C348.973 79.7682 344.831 78.2814 343.166 74.8001C341.502 71.3187 342.946 67.1611 346.392 65.5139C349.838 63.8666 353.98 65.3534 355.645 68.8348C357.309 72.3161 355.865 76.4737 352.419 78.121Z" fill="#00AEEF"/>
<path d="M370.5 115.942C367.054 117.59 362.912 116.103 361.247 112.621C359.583 109.14 361.027 104.982 364.473 103.335C367.919 101.688 372.061 103.175 373.725 106.656C375.39 110.137 373.946 114.295 370.5 115.942Z" fill="#00AEEF"/>
<path d="M388.581 153.764C385.135 155.411 380.992 153.924 379.328 150.443C377.664 146.961 379.108 142.804 382.554 141.156C385.999 139.509 390.142 140.996 391.806 144.477C393.471 147.959 392.026 152.116 388.581 153.764Z" fill="#00AEEF"/>
<path d="M406.661 191.585C403.216 193.232 399.073 191.745 397.409 188.264C395.745 184.783 397.189 180.625 400.635 178.978C404.08 177.33 408.223 178.817 409.887 182.299C411.551 185.78 410.107 189.938 406.661 191.585Z" fill="#00AEEF"/>
<path d="M296.904 58.1956C293.458 59.8429 289.315 58.3561 287.651 54.8747C285.987 51.3934 287.431 47.2358 290.877 45.5885C294.322 43.9413 298.465 45.4281 300.129 48.9094C301.794 52.3908 300.349 56.5483 296.904 58.1956Z" fill="#00AEEF"/>
<path d="M314.984 96.0169C311.539 97.6642 307.396 96.1774 305.732 92.696C304.068 89.2147 305.512 85.0571 308.957 83.4098C312.403 81.7625 316.546 83.2493 318.21 86.7307C319.874 90.2121 318.43 94.3696 314.984 96.0169Z" fill="#00AEEF"/>
<path d="M333.065 133.838C329.62 135.485 325.477 133.999 323.813 130.517C322.148 127.036 323.593 122.878 327.038 121.231C330.484 119.584 334.627 121.071 336.291 124.552C337.955 128.033 336.511 132.191 333.065 133.838Z" fill="#00AEEF"/>
<path d="M351.146 171.659C347.7 173.307 343.558 171.82 341.894 168.339C340.229 164.857 341.673 160.7 345.119 159.052C348.565 157.405 352.707 158.892 354.372 162.373C356.036 165.855 354.592 170.012 351.146 171.659Z" fill="#00AEEF"/>
<path d="M369.227 209.481C365.781 211.128 361.639 209.641 359.974 206.16C358.31 202.678 359.754 198.521 363.2 196.874C366.646 195.226 370.788 196.713 372.453 200.195C374.117 203.676 372.673 207.833 369.227 209.481Z" fill="#00AEEF"/>
<path d="M387.308 247.302C383.862 248.949 379.719 247.462 378.055 243.981C376.391 240.5 377.835 236.342 381.281 234.695C384.727 233.048 388.869 234.534 390.533 238.016C392.198 241.497 390.753 245.655 387.308 247.302Z" fill="#00AEEF"/>
<path d="M241.388 38.2703C237.942 39.9176 233.8 38.4307 232.136 34.9494C230.471 31.468 231.916 27.3105 235.361 25.6632C238.807 24.0159 242.95 25.5027 244.614 28.9841C246.278 32.4654 244.834 36.623 241.388 38.2703Z" fill="#00AEEF"/>
<path d="M259.469 76.0916C256.023 77.7388 251.881 76.252 250.217 72.7707C248.552 69.2893 249.996 65.1317 253.442 63.4845C256.888 61.8372 261.03 63.324 262.695 66.8054C264.359 70.2867 262.915 74.4443 259.469 76.0916Z" fill="#00AEEF"/>
<path d="M277.55 113.913C274.104 115.56 269.962 114.073 268.297 110.592C266.633 107.111 268.077 102.953 271.523 101.306C274.969 99.6585 279.111 101.145 280.776 104.627C282.44 108.108 280.996 112.266 277.55 113.913Z" fill="#00AEEF"/>
<path d="M295.631 151.734C292.185 153.381 288.042 151.895 286.378 148.413C284.714 144.932 286.158 140.774 289.604 139.127C293.05 137.48 297.192 138.967 298.856 142.448C300.521 145.929 299.076 150.087 295.631 151.734Z" fill="#00AEEF"/>
<path d="M313.712 189.555C310.266 191.203 306.123 189.716 304.459 186.235C302.795 182.753 304.239 178.596 307.685 176.948C311.13 175.301 315.273 176.788 316.937 180.269C318.601 183.751 317.157 187.908 313.712 189.555Z" fill="#00AEEF"/>
<path d="M331.792 227.377C328.347 229.024 324.204 227.537 322.54 224.056C320.875 220.574 322.32 216.417 325.765 214.77C329.211 213.122 333.354 214.609 335.018 218.09C336.682 221.572 335.238 225.729 331.792 227.377Z" fill="#00AEEF"/>
<path d="M349.873 265.198C346.427 266.845 342.285 265.358 340.621 261.877C338.956 258.396 340.4 254.238 343.846 252.591C347.292 250.944 351.434 252.43 353.099 255.912C354.763 259.393 353.319 263.551 349.873 265.198Z" fill="#00AEEF"/>
<path d="M367.954 303.019C364.508 304.667 360.366 303.18 358.701 299.698C357.037 296.217 358.481 292.059 361.927 290.412C365.373 288.765 369.515 290.252 371.18 293.733C372.844 297.214 371.4 301.372 367.954 303.019Z" fill="#00AEEF"/>
<path d="M185.873 18.3449C182.427 19.9922 178.285 18.5054 176.62 15.0241C174.956 11.5427 176.4 7.38513 179.846 5.73786C183.292 4.09058 187.434 5.57739 189.099 9.05875C190.763 12.5401 189.319 16.6977 185.873 18.3449Z" fill="#00AEEF"/>
<path d="M203.954 56.1662C200.508 57.8135 196.365 56.3267 194.701 52.8453C193.037 49.364 194.481 45.2064 197.927 43.5591C201.373 41.9119 205.515 43.3987 207.179 46.88C208.844 50.3614 207.399 54.519 203.954 56.1662Z" fill="#00AEEF"/>
<path d="M222.035 93.9875C218.589 95.6348 214.446 94.148 212.782 90.6666C211.118 87.1853 212.562 83.0277 216.008 81.3804C219.453 79.7331 223.596 81.2199 225.26 84.7013C226.924 88.1827 225.48 92.3402 222.035 93.9875Z" fill="#00AEEF"/>
<path d="M240.115 131.809C236.67 133.456 232.527 131.969 230.863 128.488C229.198 125.007 230.643 120.849 234.088 119.202C237.534 117.554 241.677 119.041 243.341 122.523C245.005 126.004 243.561 130.162 240.115 131.809Z" fill="#00AEEF"/>
<path d="M258.196 169.63C254.75 171.277 250.608 169.791 248.944 166.309C247.279 162.828 248.723 158.67 252.169 157.023C255.615 155.376 259.757 156.863 261.422 160.344C263.086 163.825 261.642 167.983 258.196 169.63Z" fill="#00AEEF"/>
<path d="M276.277 207.451C272.831 209.099 268.689 207.612 267.024 204.13C265.36 200.649 266.804 196.492 270.25 194.844C273.696 193.197 277.838 194.684 279.503 198.165C281.167 201.646 279.723 205.804 276.277 207.451Z" fill="#00AEEF"/>
<path d="M294.358 245.273C290.912 246.92 286.77 245.433 285.105 241.952C283.441 238.47 284.885 234.313 288.331 232.666C291.777 231.018 295.919 232.505 297.583 235.986C299.248 239.468 297.804 243.625 294.358 245.273Z" fill="#00AEEF"/>
<path d="M312.439 283.094C308.993 284.741 304.85 283.254 303.186 279.773C301.522 276.292 302.966 272.134 306.412 270.487C309.857 268.84 314 270.326 315.664 273.808C317.329 277.289 315.884 281.447 312.439 283.094Z" fill="#00AEEF"/>
<path d="M330.519 320.915C327.074 322.562 322.931 321.076 321.267 317.594C319.603 314.113 321.047 309.955 324.492 308.308C327.938 306.661 332.081 308.148 333.745 311.629C335.409 315.11 333.965 319.268 330.519 320.915Z" fill="#00AEEF"/>
<path d="M348.6 358.736C345.155 360.384 341.012 358.897 339.348 355.416C337.683 351.934 339.128 347.777 342.573 346.129C346.019 344.482 350.162 345.969 351.826 349.45C353.49 352.932 352.046 357.089 348.6 358.736Z" fill="#00AEEF"/>
<path d="M148.438 36.2409C144.993 37.8882 140.85 36.4014 139.186 32.92C137.521 29.4386 138.966 25.2811 142.411 23.6338C145.857 21.9865 150 23.4733 151.664 26.9547C153.328 30.436 151.884 34.5936 148.438 36.2409Z" fill="#00AEEF"/>
<path d="M166.519 74.0622C163.073 75.7094 158.931 74.2226 157.267 70.7413C155.602 67.2599 157.046 63.1023 160.492 61.4551C163.938 59.8078 168.08 61.2946 169.745 64.776C171.409 68.2573 169.965 72.4149 166.519 74.0622Z" fill="#00AEEF"/>
<path d="M184.6 111.883C181.154 113.531 177.012 112.044 175.347 108.563C173.683 105.081 175.127 100.924 178.573 99.2763C182.019 97.6291 186.161 99.1159 187.826 102.597C189.49 106.079 188.046 110.236 184.6 111.883Z" fill="#00AEEF"/>
<path d="M202.681 149.705C199.235 151.352 195.093 149.865 193.428 146.384C191.764 142.902 193.208 138.745 196.654 137.098C200.1 135.45 204.242 136.937 205.906 140.419C207.571 143.9 206.127 148.057 202.681 149.705Z" fill="#00AEEF"/>
<path d="M220.762 187.526C217.316 189.173 213.173 187.686 211.509 184.205C209.845 180.724 211.289 176.566 214.735 174.919C218.18 173.272 222.323 174.758 223.987 178.24C225.652 181.721 224.207 185.879 220.762 187.526Z" fill="#00AEEF"/>
<path d="M238.842 225.347C235.397 226.995 231.254 225.508 229.59 222.026C227.926 218.545 229.37 214.387 232.816 212.74C236.261 211.093 240.404 212.58 242.068 216.061C243.732 219.542 242.288 223.7 238.842 225.347Z" fill="#00AEEF"/>
<path d="M256.923 263.169C253.478 264.816 249.335 263.329 247.671 259.848C246.006 256.366 247.451 252.209 250.896 250.561C254.342 248.914 258.485 250.401 260.149 253.882C261.813 257.364 260.369 261.521 256.923 263.169Z" fill="#00AEEF"/>
<path d="M275.004 300.99C271.558 302.637 267.416 301.15 265.752 297.669C264.087 294.188 265.531 290.03 268.977 288.383C272.423 286.735 276.565 288.222 278.23 291.704C279.894 295.185 278.45 299.343 275.004 300.99Z" fill="#00AEEF"/>
<path d="M293.085 338.811C289.639 340.458 285.497 338.972 283.832 335.49C282.168 332.009 283.612 327.851 287.058 326.204C290.504 324.557 294.646 326.044 296.311 329.525C297.975 333.006 296.531 337.164 293.085 338.811Z" fill="#00AEEF"/>
<path d="M311.166 376.632C307.72 378.28 303.577 376.793 301.913 373.311C300.249 369.83 301.693 365.673 305.139 364.025C308.585 362.378 312.727 363.865 314.391 367.346C316.056 370.828 314.611 374.985 311.166 376.632Z" fill="#00AEEF"/>
<path d="M111.004 54.1368C107.558 55.7841 103.416 54.2973 101.751 50.8159C100.087 47.3346 101.531 43.177 104.977 41.5297C108.423 39.8825 112.565 41.3693 114.229 44.8506C115.894 48.332 114.45 52.4896 111.004 54.1368Z" fill="#00AEEF"/>
<path d="M129.085 91.9581C125.639 93.6054 121.496 92.1186 119.832 88.6372C118.168 85.1559 119.612 80.9983 123.058 79.351C126.503 77.7037 130.646 79.1905 132.31 82.6719C133.975 86.1532 132.53 90.3108 129.085 91.9581Z" fill="#00AEEF"/>
<path d="M147.165 129.779C143.72 131.427 139.577 129.94 137.913 126.458C136.249 122.977 137.693 118.82 141.138 117.172C144.584 115.525 148.727 117.012 150.391 120.493C152.055 123.975 150.611 128.132 147.165 129.779Z" fill="#00AEEF"/>
<path d="M165.246 167.601C161.8 169.248 157.658 167.761 155.994 164.28C154.329 160.798 155.774 156.641 159.219 154.994C162.665 153.346 166.808 154.833 168.472 158.314C170.136 161.796 168.692 165.953 165.246 167.601Z" fill="#00AEEF"/>
<path d="M183.327 205.422C179.881 207.069 175.739 205.582 174.075 202.101C172.41 198.62 173.854 194.462 177.3 192.815C180.746 191.168 184.888 192.654 186.553 196.136C188.217 199.617 186.773 203.775 183.327 205.422Z" fill="#00AEEF"/>
<path d="M201.408 243.243C197.962 244.89 193.82 243.404 192.155 239.922C190.491 236.441 191.935 232.283 195.381 230.636C198.827 228.989 202.969 230.476 204.634 233.957C206.298 237.438 204.854 241.596 201.408 243.243Z" fill="#00AEEF"/>
<path d="M219.489 281.064C216.043 282.712 211.9 281.225 210.236 277.744C208.572 274.262 210.016 270.105 213.462 268.457C216.908 266.81 221.05 268.297 222.714 271.778C224.379 275.26 222.934 279.417 219.489 281.064Z" fill="#00AEEF"/>
<path d="M237.57 318.886C234.124 320.533 229.981 319.046 228.317 315.565C226.653 312.084 228.097 307.926 231.543 306.279C234.988 304.631 239.131 306.118 240.795 309.6C242.459 313.081 241.015 317.239 237.57 318.886Z" fill="#00AEEF"/>
<path d="M255.65 356.707C252.205 358.354 248.062 356.868 246.398 353.386C244.734 349.905 246.178 345.747 249.623 344.1C253.069 342.453 257.212 343.94 258.876 347.421C260.54 350.902 259.096 355.06 255.65 356.707Z" fill="#00AEEF"/>
<path d="M273.731 394.528C270.285 396.176 266.143 394.689 264.479 391.207C262.814 387.726 264.258 383.569 267.704 381.921C271.15 380.274 275.293 381.761 276.957 385.242C278.621 388.723 277.177 392.881 273.731 394.528Z" fill="#00AEEF"/>
<path d="M73.5693 72.0328C70.1235 73.68 65.981 72.1932 64.3167 68.7119C62.6524 65.2305 64.0966 61.0729 67.5423 59.4257C70.9881 57.7784 75.1306 59.2652 76.7949 62.7466C78.4592 66.2279 77.015 70.3855 73.5693 72.0328Z" fill="#00AEEF"/>
<path d="M91.6501 109.854C88.2043 111.501 84.0618 110.015 82.3975 106.533C80.7332 103.052 82.1774 98.8942 85.6231 97.2469C89.0689 95.5997 93.2114 97.0865 94.8757 100.568C96.54 104.049 95.0958 108.207 91.6501 109.854Z" fill="#00AEEF"/>
<path d="M109.731 147.675C106.285 149.323 102.143 147.836 100.478 144.354C98.814 140.873 100.258 136.715 103.704 135.068C107.15 133.421 111.292 134.908 112.957 138.389C114.621 141.87 113.177 146.028 109.731 147.675Z" fill="#00AEEF"/>
<path d="M127.812 185.497C124.366 187.144 120.223 185.657 118.559 182.176C116.895 178.694 118.339 174.537 121.785 172.89C125.231 171.242 129.373 172.729 131.037 176.21C132.702 179.692 131.257 183.849 127.812 185.497Z" fill="#00AEEF"/>
<path d="M145.893 223.318C142.447 224.965 138.304 223.478 136.64 219.997C134.976 216.516 136.42 212.358 139.866 210.711C143.311 209.063 147.454 210.55 149.118 214.032C150.782 217.513 149.338 221.671 145.893 223.318Z" fill="#00AEEF"/>
<path d="M163.973 261.139C160.528 262.786 156.385 261.3 154.721 257.818C153.056 254.337 154.501 250.179 157.946 248.532C161.392 246.885 165.535 248.372 167.199 251.853C168.863 255.334 167.419 259.492 163.973 261.139Z" fill="#00AEEF"/>
<path d="M182.054 298.96C178.608 300.608 174.466 299.121 172.802 295.64C171.137 292.158 172.581 288.001 176.027 286.353C179.473 284.706 183.615 286.193 185.28 289.674C186.944 293.156 185.5 297.313 182.054 298.96Z" fill="#00AEEF"/>
<path d="M200.135 336.782C196.689 338.429 192.547 336.942 190.882 333.461C189.218 329.979 190.662 325.822 194.108 324.175C197.554 322.527 201.696 324.014 203.361 327.495C205.025 330.977 203.581 335.134 200.135 336.782Z" fill="#00AEEF"/>
<path d="M218.216 374.603C214.77 376.25 210.628 374.763 208.963 371.282C207.299 367.801 208.743 363.643 212.189 361.996C215.635 360.349 219.777 361.835 221.441 365.317C223.106 368.798 221.662 372.956 218.216 374.603Z" fill="#00AEEF"/>
<path d="M236.297 412.424C232.851 414.072 228.708 412.585 227.044 409.103C225.38 405.622 226.824 401.464 230.27 399.817C233.715 398.17 237.858 399.657 239.522 403.138C241.187 406.619 239.742 410.777 236.297 412.424Z" fill="#00AEEF"/>
<path d="M54.2155 127.75C50.7698 129.397 46.6273 127.91 44.963 124.429C43.2987 120.948 44.7428 116.79 48.1886 115.143C51.6343 113.496 55.7768 114.982 57.4411 118.464C59.1054 121.945 57.6613 126.103 54.2155 127.75Z" fill="#00AEEF"/>
<path d="M72.2963 165.571C68.8506 167.219 64.7081 165.732 63.0438 162.25C61.3795 158.769 62.8237 154.611 66.2694 152.964C69.7151 151.317 73.8577 152.804 75.522 156.285C77.1862 159.766 75.7421 163.924 72.2963 165.571Z" fill="#00AEEF"/>
<path d="M90.3772 203.393C86.9314 205.04 82.7889 203.553 81.1246 200.072C79.4603 196.59 80.9045 192.433 84.3502 190.785C87.796 189.138 91.9385 190.625 93.6028 194.106C95.2671 197.588 93.8229 201.745 90.3772 203.393Z" fill="#00AEEF"/>
<path d="M108.458 241.214C105.012 242.861 100.87 241.374 99.2054 237.893C97.5411 234.412 98.9853 230.254 102.431 228.607C105.877 226.959 110.019 228.446 111.684 231.928C113.348 235.409 111.904 239.567 108.458 241.214Z" fill="#00AEEF"/>
<path d="M126.539 279.035C123.093 280.682 118.951 279.196 117.286 275.714C115.622 272.233 117.066 268.075 120.512 266.428C123.958 264.781 128.1 266.268 129.764 269.749C131.429 273.23 129.985 277.388 126.539 279.035Z" fill="#00AEEF"/>
<path d="M144.62 316.856C141.174 318.504 137.031 317.017 135.367 313.535C133.703 310.054 135.147 305.897 138.593 304.249C142.038 302.602 146.181 304.089 147.845 307.57C149.51 311.052 148.065 315.209 144.62 316.856Z" fill="#00AEEF"/>
<path d="M162.7 354.678C159.255 356.325 155.112 354.838 153.448 351.357C151.784 347.875 153.228 343.718 156.673 342.071C160.119 340.423 164.262 341.91 165.926 345.391C167.59 348.873 166.146 353.03 162.7 354.678Z" fill="#00AEEF"/>
<path d="M180.781 392.499C177.336 394.146 173.193 392.659 171.529 389.178C169.864 385.697 171.309 381.539 174.754 379.892C178.2 378.245 182.343 379.731 184.007 383.213C185.671 386.694 184.227 390.852 180.781 392.499Z" fill="#00AEEF"/>
<path d="M34.8618 183.467C31.4161 185.114 27.2735 183.628 25.6092 180.146C23.945 176.665 25.3891 172.507 28.8349 170.86C32.2806 169.213 36.4231 170.7 38.0874 174.181C39.7517 177.662 38.3075 181.82 34.8618 183.467Z" fill="#00AEEF"/>
<path d="M52.9426 221.288C49.4969 222.936 45.3544 221.449 43.6901 217.968C42.0258 214.486 43.4699 210.329 46.9157 208.681C50.3614 207.034 54.5039 208.521 56.1682 212.002C57.8325 215.484 56.3884 219.641 52.9426 221.288Z" fill="#00AEEF"/>
<path d="M71.0234 259.11C67.5777 260.757 63.4352 259.27 61.7709 255.789C60.1066 252.308 61.5508 248.15 64.9965 246.503C68.4422 244.855 72.5848 246.342 74.2491 249.824C75.9134 253.305 74.4692 257.462 71.0234 259.11Z" fill="#00AEEF"/>
<path d="M89.1043 296.931C85.6585 298.578 81.516 297.091 79.8517 293.61C78.1874 290.129 79.6316 285.971 83.0773 284.324C86.5231 282.677 90.6656 284.163 92.3299 287.645C93.9942 291.126 92.55 295.284 89.1043 296.931Z" fill="#00AEEF"/>
<path d="M107.185 334.752C103.739 336.4 99.5968 334.913 97.9325 331.431C96.2682 327.95 97.7124 323.792 101.158 322.145C104.604 320.498 108.746 321.985 110.411 325.466C112.075 328.947 110.631 333.105 107.185 334.752Z" fill="#00AEEF"/>
<path d="M125.266 372.574C121.82 374.221 117.678 372.734 116.013 369.253C114.349 365.771 115.793 361.614 119.239 359.966C122.685 358.319 126.827 359.806 128.492 363.287C130.156 366.769 128.712 370.926 125.266 372.574Z" fill="#00AEEF"/>
<path d="M15.5081 239.184C12.0623 240.832 7.91982 239.345 6.25553 235.864C4.59123 232.382 6.0354 228.225 9.48114 226.577C12.9269 224.93 17.0694 226.417 18.7337 229.898C20.398 233.38 18.9538 237.537 15.5081 239.184Z" fill="#00AEEF"/>
<path d="M33.5889 277.006C30.1432 278.653 26.0006 277.166 24.3363 273.685C22.6721 270.203 24.1162 266.046 27.562 264.399C31.0077 262.751 35.1502 264.238 36.8145 267.719C38.4788 271.201 37.0346 275.358 33.5889 277.006Z" fill="#00AEEF"/>
<path d="M51.6697 314.827C48.224 316.474 44.0815 314.987 42.4172 311.506C40.7529 308.025 42.197 303.867 45.6428 302.22C49.0885 300.573 53.231 302.059 54.8953 305.541C56.5596 309.022 55.1155 313.18 51.6697 314.827Z" fill="#00AEEF"/>
<path d="M69.7505 352.648C66.3048 354.296 62.1623 352.809 60.498 349.327C58.8337 345.846 60.2779 341.688 63.7236 340.041C67.1693 338.394 71.3119 339.881 72.9762 343.362C74.6404 346.843 73.1963 351.001 69.7505 352.648Z" fill="#00AEEF"/>
</svg>
