<svg width="752" height="671" viewBox="0 0 752 671" fill="none" xmlns="http://www.w3.org/2000/svg">
<path fill-rule="evenodd" clip-rule="evenodd" d="M376 233.281C312.74 233.281 261.457 279.038 261.457 335.481C261.457 391.924 312.74 437.68 376 437.68C439.26 437.68 490.543 391.924 490.543 335.481C490.543 279.038 439.26 233.281 376 233.281ZM266.437 335.481C266.437 281.492 315.49 237.725 376 237.725C436.51 237.725 485.563 281.492 485.563 335.481C485.563 389.47 436.51 433.237 376 433.237C315.49 433.237 266.437 389.47 266.437 335.481Z" fill="#FFD738"/>
<path fill-rule="evenodd" clip-rule="evenodd" d="M376 216.619C302.425 216.619 242.781 269.835 242.781 335.481C242.781 401.127 302.425 454.343 376 454.343C449.575 454.343 509.219 401.127 509.219 335.481C509.219 269.835 449.575 216.619 376 216.619ZM247.762 335.481C247.762 272.289 305.176 221.062 376 221.062C446.824 221.062 504.238 272.289 504.238 335.481C504.238 398.673 446.824 449.9 376 449.9C305.176 449.9 247.762 398.673 247.762 335.481Z" fill="#FFD738"/>
<path fill-rule="evenodd" clip-rule="evenodd" d="M224.106 335.481C224.106 260.632 292.111 199.956 376 199.956C459.889 199.956 527.894 260.632 527.894 335.481C527.894 410.33 459.889 471.006 376 471.006C292.111 471.006 224.106 410.33 224.106 335.481ZM376 204.399C294.862 204.399 229.086 263.086 229.086 335.481C229.086 407.876 294.862 466.563 376 466.563C457.138 466.563 522.914 407.876 522.914 335.481C522.914 263.086 457.138 204.399 376 204.399Z" fill="#FFD738"/>
<path fill-rule="evenodd" clip-rule="evenodd" d="M205.43 335.481C205.43 251.43 281.797 183.293 376 183.293C470.203 183.293 546.57 251.43 546.57 335.481C546.57 419.532 470.203 487.669 376 487.669C281.797 487.669 205.43 419.532 205.43 335.481ZM376 187.736C284.547 187.736 210.411 253.884 210.411 335.481C210.411 417.078 284.547 483.226 376 483.226C467.452 483.226 541.589 417.078 541.589 335.481C541.589 253.884 467.452 187.736 376 187.736Z" fill="#FFD738"/>
<path fill-rule="evenodd" clip-rule="evenodd" d="M186.755 335.481C186.755 242.227 271.483 166.63 376 166.63C480.517 166.63 565.245 242.227 565.245 335.481C565.245 428.735 480.517 504.332 376 504.332C271.483 504.332 186.755 428.735 186.755 335.481ZM376 171.073C274.233 171.073 191.735 244.681 191.735 335.481C191.735 426.281 274.233 499.889 376 499.889C477.767 499.889 560.265 426.281 560.265 335.481C560.265 244.681 477.767 171.073 376 171.073Z" fill="#FFD738"/>
<path fill-rule="evenodd" clip-rule="evenodd" d="M376 149.967C261.169 149.967 168.079 233.024 168.079 335.481C168.079 437.938 261.169 520.995 376 520.995C490.831 520.995 583.921 437.938 583.921 335.481C583.921 233.024 490.831 149.967 376 149.967ZM173.06 335.481C173.06 235.478 263.919 154.41 376 154.41C488.081 154.41 578.94 235.478 578.94 335.481C578.94 435.484 488.081 516.552 376 516.552C263.919 516.552 173.06 435.484 173.06 335.481Z" fill="#FFD738"/>
<path fill-rule="evenodd" clip-rule="evenodd" d="M149.404 335.481C149.404 223.822 250.854 133.304 376 133.304C501.146 133.304 602.596 223.822 602.596 335.481C602.596 447.14 501.146 537.658 376 537.658C250.854 537.658 149.404 447.14 149.404 335.481ZM376 137.747C253.605 137.747 154.384 226.276 154.384 335.481C154.384 444.686 253.605 533.215 376 533.215C498.395 533.215 597.616 444.686 597.616 335.481C597.616 226.276 498.395 137.747 376 137.747Z" fill="#FFD738"/>
<path fill-rule="evenodd" clip-rule="evenodd" d="M376 116.641C240.54 116.641 130.728 214.619 130.728 335.481C130.728 456.343 240.54 554.321 376 554.321C511.46 554.321 621.272 456.343 621.272 335.481C621.272 214.619 511.46 116.641 376 116.641ZM135.709 335.481C135.709 217.073 243.291 121.084 376 121.084C508.709 121.084 616.291 217.073 616.291 335.481C616.291 453.889 508.709 549.878 376 549.878C243.291 549.878 135.709 453.889 135.709 335.481Z" fill="#FFD738"/>
<path fill-rule="evenodd" clip-rule="evenodd" d="M112.053 335.481C112.053 205.416 230.226 99.9778 376 99.9778C521.774 99.9778 639.947 205.416 639.947 335.481C639.947 465.546 521.774 570.984 376 570.984C230.226 570.984 112.053 465.546 112.053 335.481ZM376 104.421C232.977 104.421 117.033 207.87 117.033 335.481C117.033 463.092 232.977 566.541 376 566.541C519.023 566.541 634.967 463.092 634.967 335.481C634.967 207.87 519.023 104.421 376 104.421Z" fill="#FFD738"/>
<path fill-rule="evenodd" clip-rule="evenodd" d="M376 83.3148C219.912 83.3148 93.3775 196.213 93.3775 335.481C93.3775 474.749 219.912 587.647 376 587.647C532.088 587.647 658.623 474.749 658.623 335.481C658.623 196.213 532.088 83.3148 376 83.3148ZM98.3576 335.481C98.3576 198.667 222.662 87.7583 376 87.7583C529.338 87.7583 653.642 198.667 653.642 335.481C653.642 472.294 529.338 583.204 376 583.204C222.662 583.204 98.3576 472.294 98.3576 335.481Z" fill="#FFD738"/>
<path fill-rule="evenodd" clip-rule="evenodd" d="M74.702 335.481C74.702 187.011 209.598 66.6519 376 66.6519C542.402 66.6519 677.298 187.011 677.298 335.481C677.298 483.951 542.402 604.31 376 604.31C209.598 604.31 74.702 483.951 74.702 335.481ZM376 71.0953C212.348 71.0953 79.6821 189.465 79.6821 335.481C79.6821 481.497 212.348 599.867 376 599.867C539.652 599.867 672.318 481.497 672.318 335.481C672.318 189.465 539.652 71.0953 376 71.0953Z" fill="#FFD738"/>
<path fill-rule="evenodd" clip-rule="evenodd" d="M376 49.9889C199.284 49.9889 56.0265 177.808 56.0265 335.481C56.0265 493.154 199.284 620.973 376 620.973C552.717 620.973 695.974 493.154 695.974 335.481C695.974 177.808 552.717 49.9889 376 49.9889ZM61.0066 335.481C61.0066 180.262 202.034 54.4323 376 54.4323C549.966 54.4323 690.993 180.262 690.993 335.481C690.993 490.7 549.966 616.53 376 616.53C202.034 616.53 61.0066 490.7 61.0066 335.481Z" fill="#FFD738"/>
<path fill-rule="evenodd" clip-rule="evenodd" d="M37.351 335.481C37.351 168.605 188.969 33.3259 376 33.3259C563.031 33.3259 714.649 168.605 714.649 335.481C714.649 502.357 563.031 637.636 376 637.636C188.969 637.636 37.351 502.357 37.351 335.481ZM376 37.7694C191.72 37.7694 42.3311 171.059 42.3311 335.481C42.3311 499.903 191.72 633.193 376 633.193C560.28 633.193 709.669 499.903 709.669 335.481C709.669 171.059 560.28 37.7694 376 37.7694Z" fill="#FFD738"/>
<path fill-rule="evenodd" clip-rule="evenodd" d="M376 16.663C178.655 16.663 18.6755 159.403 18.6755 335.481C18.6755 511.559 178.655 654.299 376 654.299C573.345 654.299 733.325 511.559 733.325 335.481C733.325 159.403 573.345 16.663 376 16.663ZM23.6556 335.481C23.6556 161.857 181.406 21.1064 376 21.1064C570.594 21.1064 728.344 161.857 728.344 335.481C728.344 509.105 570.594 649.856 376 649.856C181.406 649.856 23.6556 509.105 23.6556 335.481Z" fill="#FFD738"/>
<path fill-rule="evenodd" clip-rule="evenodd" d="M0 335.481C0 150.2 168.341 0 376 0C583.659 0 752 150.2 752 335.481C752 520.762 583.659 670.962 376 670.962C168.341 670.962 0 520.762 0 335.481ZM376 4.44346C171.091 4.44346 4.98013 152.654 4.98013 335.481C4.98013 518.308 171.091 666.518 376 666.518C580.909 666.518 747.02 518.308 747.02 335.481C747.02 152.654 580.909 4.44346 376 4.44346Z" fill="#FFD738"/>
</svg>
